<svg xmlns="http://www.w3.org/2000/svg" xmlns:xlink="http://www.w3.org/1999/xlink" version="1.1" width="1000" height="1000" viewBox="0 0 1000 1000" xml:space="preserve">
<desc>Created with Fabric.js 3.5.0</desc>
<defs>
</defs>
<rect x="0" y="0" width="100%" height="100%" fill="rgba(255,255,255,0)"/>
<g transform="matrix(15.5843 0 0 15.5843 498.6976 498.6976)" id="654205">
<g style="" vector-effect="non-scaling-stroke">
		<g transform="matrix(0.3097 0 0 0.3097 -0.0027 20.3705)">
<linearGradient id="SVGID_7" gradientUnits="userSpaceOnUse" gradientTransform="matrix(1 0 0 1 0 0)" x1="223.43" y1="222.58" x2="377.75" y2="222.58">
<stop offset="0%" style="stop-color:rgb(201,97,52);stop-opacity: 1"/>
<stop offset="100%" style="stop-color:rgb(114,51,56);stop-opacity: 1"/>
</linearGradient>
<path style="stroke: none; stroke-width: 1; stroke-dasharray: none; stroke-linecap: butt; stroke-dashoffset: 0; stroke-linejoin: miter; stroke-miterlimit: 4; is-custom-font: none; font-file-url: none; fill: url(#SVGID_7); fill-rule: nonzero; opacity: 1;" transform=" translate(-300.5922, -222.54)" d="M 365 185 a 40.62 40.62 0 0 1 7.79 10.64 c 6 12.18 3.8 25.62 -8.15 37.34 c -13.7 13.43 -37 21.7 -64.05 21.7 s -50.36 -8.26 -64.06 -21.7 c -11.94 -11.72 -14.14 -25.16 -8.15 -37.34 A 41 41 0 0 1 236.2 185 c -3.82 3.7 -6.84 7 -9.58 12.45 c -5.85 11.7 -4 28.43 8.37 40.56 c 14 13.77 36 22.07 65.87 22.07 s 51.92 -8.55 65.37 -22.07 c 13.2 -13.26 13.7 -30.52 8.3 -40.93 A 41.89 41.89 0 0 0 365 185 z" stroke-linecap="round"/>
</g>
		<g transform="matrix(0.3097 0 0 0.3097 0.0127 16.1266)">
<path style="stroke: none; stroke-width: 1; stroke-dasharray: none; stroke-linecap: butt; stroke-dashoffset: 0; stroke-linejoin: miter; stroke-miterlimit: 4; is-custom-font: none; font-file-url: none; fill: rgb(241,121,48); fill-rule: nonzero; opacity: 1;" transform=" translate(-300.6416, -208.84)" d="M 343.08 170.95 c -12.68 -5.26 -27.45 -8 -42.44 -8 s -29.76 2.7 -42.44 8 c -13.88 5.76 -24.62 14.3 -29.76 24.74 c -6 12.18 -3.8 25.62 8.15 37.34 c 13.7 13.43 37 21.7 64.06 21.7 S 351 246.45 364.7 233 c 11.94 -11.72 14.14 -25.16 8.15 -37.34 c -5.15 -10.42 -15.84 -18.96 -29.76 -24.7 z" stroke-linecap="round"/>
</g>
		<g transform="matrix(0.3097 0 0 0.3097 -10.778 13.1535)">
<linearGradient id="SVGID_8" gradientUnits="userSpaceOnUse" gradientTransform="matrix(1 0 0 1 0 0)" x1="210.7" y1="209.15" x2="306.08" y2="192.33">
<stop offset="0%" style="stop-color:rgb(255,219,132);stop-opacity: 1"/>
<stop offset="100%" style="stop-color:rgb(241,121,48);stop-opacity: 1"/>
</linearGradient>
<path style="stroke: none; stroke-width: 1; stroke-dasharray: none; stroke-linecap: butt; stroke-dashoffset: 0; stroke-linejoin: miter; stroke-miterlimit: 4; is-custom-font: none; font-file-url: none; fill: url(#SVGID_8); fill-rule: nonzero; opacity: 1;" transform=" translate(-265.7992, -199.24)" d="M 303.15 176.82 c -2.5 -5.12 -2 -9.76 -1.48 -13.82 h -1 c -15 0 -29.76 2.7 -42.44 8 c -13.88 5.76 -24.62 14.3 -29.76 24.74 c -6 12.18 -3.8 25.62 8.15 37.34 q 1.26 1.23 2.62 2.4 c 50.36 -3 76.7 -32.5 63.9 -58.67 z" stroke-linecap="round"/>
</g>
		<g transform="matrix(0.3097 0 0 0.3097 0.1697 13.7609)">
<path style="stroke: none; stroke-width: 1; stroke-dasharray: none; stroke-linecap: butt; stroke-dashoffset: 0; stroke-linejoin: miter; stroke-miterlimit: 4; is-custom-font: none; font-file-url: none; fill: rgb(255,255,255); fill-rule: evenodd; opacity: 1;" transform=" translate(-301.145, -201.2)" d="M 268.17 177.7 a 270.12 270.12 0 0 1 27.33 8.56 c 1.8 -5.4 3.7 -10.74 5.87 -16 c 2.18 5.24 4.08 10.6 5.88 16 a 266.28 266.28 0 0 1 27.17 -8.44 A 209.3 209.3 0 0 0 315.91 191 c 12.38 1.58 24 3.63 36.17 6.27 c -12.16 -0.27 -23.6 0.17 -35.73 0.95 c 8.56 7.25 15.9 14.27 23.85 22.17 c -10.9 -6.23 -21.14 -11.46 -32.5 -16.83 q -3.3 14.25 -6.3 28.58 l -6.06 -28.12 c -11.36 5.36 -21.7 10.48 -33 16.45 a 417.37 417.37 0 0 1 24.07 -22 c -12.14 -0.78 -23.78 -0.95 -36.2 -1.12 c 12.2 -2.63 24.24 -4.7 36.6 -6.27 a 214.39 214.39 0 0 0 -18.64 -13.39 z m 33.2 16.62 q 0 -10.5 0 -21 c -2.13 5.84 -4 11.76 -5.78 17.7 q 2.9 1.6 5.78 3.28 z M 273.63 180 c 7.5 3.3 14.8 7 22 11 q -2.67 0.27 -5.33 0.57 c -5.42 -4.06 -10.95 -7.96 -16.67 -11.57 z m 27.75 14.3 q 21.68 0 43.28 2.2 c -12.62 -2.28 -24.9 -4 -37.54 -5.5 q -2.9 1.62 -5.74 3.3 z M 329.1 180 c -7.5 3.3 -14.83 7 -22 11 q -0.43 -1.47 -0.88 -2.94 c 7.52 -3 15.14 -5.72 22.88 -8.06 z m -28.5 14.32 l 0.77 30.7 l 5.94 -27.17 c -1.97 -1.2 -4.72 -2.38 -6.7 -3.54 z m 32.62 20.9 c -8.43 -6.1 -17.06 -11.9 -25.9 -17.37 q 2.72 -0.22 5.44 -0.4 c 7.02 5.68 13.83 11.62 20.47 17.76 z m -31.85 -20.9 c -14.55 0.2 -25.9 0.86 -40.1 2.08 c 12.25 0 21.76 0.5 34.2 1.48 q 2.92 -1.82 5.88 -3.58 z m -31.84 20.9 c 8.44 -6.08 17.08 -11.9 25.94 -17.35 l 0.78 3.4 q -13.6 6.52 -26.72 13.94 z" stroke-linecap="round"/>
</g>
		<g transform="matrix(0.3097 0 0 0.3097 0.2201 6.709)">
<path style="stroke: none; stroke-width: 1; stroke-dasharray: none; stroke-linecap: butt; stroke-dashoffset: 0; stroke-linejoin: miter; stroke-miterlimit: 4; is-custom-font: none; font-file-url: none; fill: rgb(198,39,49); fill-rule: evenodd; opacity: 1;" transform=" translate(-301.305, -178.43)" d="M 301.38 170.6 c 2.18 5.24 4.08 10.6 5.88 16 a 267.4 267.4 0 0 1 26.23 -8.19 l 0.94 -0.6 a 266.28 266.28 0 0 0 -27.17 8.44 c -1.8 -5.38 -3.7 -10.73 -5.88 -16 c -2.18 5.25 -4.08 10.6 -5.87 16 a 270.12 270.12 0 0 0 -27.33 -8.56 l 0.93 0.6 a 271.48 271.48 0 0 1 26.4 8.32 c 1.8 -5.4 3.7 -10.76 5.87 -16 z" stroke-linecap="round"/>
</g>
		<g transform="matrix(0.3097 0 0 0.3097 -8.1049 16.3233)">
<path style="stroke: none; stroke-width: 1; stroke-dasharray: none; stroke-linecap: butt; stroke-dashoffset: 0; stroke-linejoin: miter; stroke-miterlimit: 4; is-custom-font: none; font-file-url: none; fill: rgb(200,77,51); fill-rule: evenodd; opacity: 1;" transform=" translate(-274.425, -209.47)" d="M 286.4 198.47 c -8.43 7.15 -16.2 14.22 -24 22 l 1.25 -0.7 c 7.7 -7.6 14.52 -13.76 22.8 -20.75 v -0.53 z" stroke-linecap="round"/>
</g>
		<g transform="matrix(0.3097 0 0 0.3097 -0.669 12.2273)">
<path style="stroke: none; stroke-width: 1; stroke-dasharray: none; stroke-linecap: butt; stroke-dashoffset: 0; stroke-linejoin: miter; stroke-miterlimit: 4; is-custom-font: none; font-file-url: none; fill: rgb(193,26,36); fill-rule: evenodd; opacity: 1;" transform=" translate(-298.43, -196.245)" d="M 301.38 194.3 v 0.35 z m -0.3 0.18 l -0.3 0.18 q -2.66 1.58 -5.3 3.2 l 0.08 0.35 l 5.8 -3.5 v -0.43 z" stroke-linecap="round"/>
</g>
		<g transform="matrix(0.3097 0 0 0.3097 -4.687 12.7176)">
<path style="stroke: none; stroke-width: 1; stroke-dasharray: none; stroke-linecap: butt; stroke-dashoffset: 0; stroke-linejoin: miter; stroke-miterlimit: 4; is-custom-font: none; font-file-url: none; fill: rgb(200,77,51); fill-rule: evenodd; opacity: 1;" transform=" translate(-285.46, -197.83)" d="M 295.6 191 l -0.54 0.06 l -4.8 0.5 c -5.4 -4.08 -10.9 -8 -16.63 -11.6 v 0.42 c 5.72 3.6 11.24 7.5 16.63 11.6 q 2.66 -0.3 5.33 -0.57 l 5.08 2.86 h 0.7 L 295.6 191 z m -26.05 24.7 q 13.13 -7.4 26.72 -14 v -0.5 q -13.6 6.53 -26.72 14 z" stroke-linecap="round"/>
</g>
		<g transform="matrix(0.3097 0 0 0.3097 6.2561 16.9814)">
<path style="stroke: none; stroke-width: 1; stroke-dasharray: none; stroke-linecap: butt; stroke-dashoffset: 0; stroke-linejoin: miter; stroke-miterlimit: 4; is-custom-font: none; font-file-url: none; fill: rgb(164,30,37); fill-rule: evenodd; opacity: 1;" transform=" translate(-320.79, -211.595)" d="M 307.33 197.84 L 301.4 225 v 0.35 l 5.92 -27.1 c 6 3.72 14.82 9.46 25.93 17.48 v -0.53 c -8.43 -6.08 -17.06 -11.9 -25.9 -17.36 z m 9.4 0.7 l -0.4 -0.33 v 0.57 c 8.26 7 14.85 13.26 22.55 20.86 l 1.3 0.74 c -8.1 -8.02 -15.32 -14.9 -23.46 -21.84 z" stroke-linecap="round"/>
</g>
		<g transform="matrix(0.3097 0 0 0.3097 -8.5901 11.7224)">
<path style="stroke: none; stroke-width: 1; stroke-dasharray: none; stroke-linecap: butt; stroke-dashoffset: 0; stroke-linejoin: miter; stroke-miterlimit: 4; is-custom-font: none; font-file-url: none; fill: rgb(200,77,51); fill-rule: evenodd; opacity: 1;" transform=" translate(-272.86, -194.615)" d="M 286.45 191.13 c -12.24 1.57 -24.16 3.6 -36.23 6.22 h 1.9 c 11.6 -2.46 22.94 -4.38 34.7 -5.88 v -0.42 z m 9.05 6.74 c -11.4 -1 -22.74 -1.55 -34.18 -1.46 v 0.35 c 11.28 -0.1 22.47 0.46 33.7 1.42 l 0.46 -0.32" stroke-linecap="round"/>
</g>
		<g transform="matrix(0.3097 0 0 0.3097 10.3433 11.5738)">
<path style="stroke: none; stroke-width: 1; stroke-dasharray: none; stroke-linecap: butt; stroke-dashoffset: 0; stroke-linejoin: miter; stroke-miterlimit: 4; is-custom-font: none; font-file-url: none; fill: rgb(164,30,37); fill-rule: evenodd; opacity: 1;" transform=" translate(-333.985, -194.135)" d="M 315.9 191 c 12.38 1.58 24 3.63 36.17 6.27 h -2 c -11.6 -2.46 -22.36 -4.3 -34.13 -5.8 V 191 z" stroke-linecap="round"/>
</g>
		<g transform="matrix(0.3097 0 0 0.3097 6.9468 9.8126)">
<path style="stroke: none; stroke-width: 1; stroke-dasharray: none; stroke-linecap: butt; stroke-dashoffset: 0; stroke-linejoin: miter; stroke-miterlimit: 4; is-custom-font: none; font-file-url: none; fill: rgb(164,30,37); fill-rule: evenodd; opacity: 1;" transform=" translate(-323.02, -188.45)" d="M 301.38 194.3 q 21.68 0 43.28 2.2 v 0.4 q -21.27 -2.13 -42.62 -2.2 l -0.36 -0.2 l -0.3 -0.18 h 0.62 m 5.12 -3.32 l 0.52 0.06 c 7 -3.87 14.13 -7.48 21.46 -10.7 V 180 c -7.5 3.3 -14.8 7 -22 11" stroke-linecap="round"/>
</g>
		<g transform="matrix(0.3097 0 0 0.3097 1.8864 10.149)">
<path style="stroke: none; stroke-width: 1; stroke-dasharray: none; stroke-linecap: butt; stroke-dashoffset: 0; stroke-linejoin: miter; stroke-miterlimit: 4; is-custom-font: none; font-file-url: none; fill: rgb(193,26,36); fill-rule: evenodd; opacity: 1;" transform=" translate(-306.68, -189.535)" d="M 307.12 191 q -0.43 -1.47 -0.88 -2.94 v 0.35 l 0.76 2.6 l 0.1 -0.05" stroke-linecap="round"/>
</g>
		<g transform="matrix(0.3097 0 0 0.3097 0.0882 15.9021)">
<path style="stroke: none; stroke-width: 1; stroke-dasharray: none; stroke-linecap: butt; stroke-dashoffset: 0; stroke-linejoin: miter; stroke-miterlimit: 4; is-custom-font: none; font-file-url: none; fill: rgb(255,255,255); fill-rule: evenodd; opacity: 1;" transform=" translate(-300.885, -208.115)" d="M 302.82 251.93 l -1.43 1 l -1.45 -1 v -11.8 c 0.42 -0.3 1 -0.58 1.46 -0.87 c 0.42 0.3 1 0.58 1.4 0.87 q 0 5.86 0.01 11.8 z M 232.8 223.4 l -0.7 1.33 l 1.63 0.58 l 12.27 -6.5 a 12.24 12.24 0 0 1 0.42 -1.44 l -1.25 -0.33 q -6.16 3.1 -12.36 6.38 z m -3.03 -24.2 l -1.13 0.9 l 0.63 0.86 q 5.78 -0.83 11.56 -1.4 l 1.13 -1.1 l -0.68 -0.7 q -5.76 0.6 -11.5 1.42 z m 14.8 -19.53 l -1.17 0.5 c 0 0.23 0.08 0.66 0.1 0.9 q 4.26 0.6 8.5 1.43 l 1.2 -0.7 l -0.15 -0.74 q -4.24 -0.8 -8.5 -1.4 z m 86.73 -12.02 h 1.08 l 0.43 0.43 q -2.23 1.4 -4.38 2.93 h -1.13 l -0.42 -0.47 q 2.17 -1.54 4.42 -2.9 z m -30.93 -4.1 l 0.8 -0.25 l 0.83 0.25 q 0 1.74 0 3.47 l -0.86 0.3 l -0.84 -0.3 q 0.04 -1.73 0.06 -3.47 z m -31.05 4.6 c 0.14 -0.14 0.45 -0.4 0.6 -0.53 h 1.1 q 2.25 1.4 4.42 2.9 l -0.42 0.46 c -0.37 0 -0.92 0.1 -1.3 0.1 q -2.17 -1.52 -4.4 -2.93 z m -9.04 76.56 c -0.58 0.14 -1.33 0.14 -1.9 0.28 c -0.13 -0.4 -0.42 -0.83 -0.54 -1.24 q 4.32 -5.16 8.75 -10.24 l 1.9 -0.37 l 0.55 1.3 q -4.43 5.1 -8.74 10.28 z M 369 223.4 l 0.7 1.33 l -1.63 0.58 l -12.25 -6.52 a 12.25 12.25 0 0 0 -0.42 -1.44 l 1.25 -0.33 q 6.2 3.1 12.36 6.38 z m 3 -24.2 l 1.13 0.9 l -0.62 0.86 q -5.78 -0.83 -11.56 -1.4 l -1.13 -1.1 l 0.68 -0.7 q 5.78 0.6 11.5 1.42 z m -14.76 -19.53 l 1.17 0.5 c 0 0.23 -0.08 0.66 -0.1 0.9 q -4.26 0.6 -8.5 1.43 l -1.2 -0.7 l 0.15 -0.74 q 4.25 -0.8 8.5 -1.4 z m -15.7 65.05 l 1.9 0.28 l 0.54 -1.24 q -4.32 -5.16 -8.75 -10.24 l -1.9 -0.37 l -0.55 1.3 q 4.43 5.1 8.74 10.28 z" stroke-linecap="round"/>
</g>
		<g transform="matrix(0.3097 0 0 0.3097 -18.4829 14.0865)">
<path style="stroke: none; stroke-width: 1; stroke-dasharray: none; stroke-linecap: butt; stroke-dashoffset: 0; stroke-linejoin: miter; stroke-miterlimit: 4; is-custom-font: none; font-file-url: none; fill: rgb(201,97,52); fill-rule: evenodd; opacity: 1;" transform=" translate(-240.92, -202.25)" d="M 232.76 224.1 l -0.4 0.73 l -0.26 -0.1 l 0.7 -1.33 q 6.16 -3.28 12.37 -6.36 l 1.25 0.33 l -0.23 0.7 c -0.33 -0.1 -0.8 -0.17 -1.12 -0.25 l -12.3 6.28 z m -2.86 -24.36 l -1 0.74 l -0.27 -0.37 l 1.13 -0.9 q 5.76 -0.84 11.52 -1.43 l 0.68 0.7 l -0.23 0.23 l -0.4 -0.38 a 278.62 278.62 0 0 0 -11.43 1.43 z m 13.57 -18.97 l -0.08 -0.6 l 1.17 -0.5 q 4.25 0.58 8.5 1.4 l 0.15 0.74 c -0.06 0 -5.8 -1.13 -8.62 -1.5 z" stroke-linecap="round"/>
</g>
		<g transform="matrix(0.3097 0 0 0.3097 9.0616 3.8766)">
<path style="stroke: none; stroke-width: 1; stroke-dasharray: none; stroke-linecap: butt; stroke-dashoffset: 0; stroke-linejoin: miter; stroke-miterlimit: 4; is-custom-font: none; font-file-url: none; fill: rgb(164,30,37); fill-rule: evenodd; opacity: 1;" transform=" translate(-329.845, -169.285)" d="M 332.38 168.26 l 0.06 0.06 l 0.37 -0.24 l -0.43 -0.43 h -1.08 q -2.25 1.4 -4.42 2.9 l 0.33 0.37 q 2 -1.4 4.1 -2.7 h 1.08 z" stroke-linecap="round"/>
</g>
		<g transform="matrix(0.3097 0 0 0.3097 0.1844 2.1545)">
<path style="stroke: none; stroke-width: 1; stroke-dasharray: none; stroke-linecap: butt; stroke-dashoffset: 0; stroke-linejoin: miter; stroke-miterlimit: 4; is-custom-font: none; font-file-url: none; fill: rgb(180,26,35); fill-rule: evenodd; opacity: 1;" transform=" translate(-301.185, -163.725)" d="M 300.37 164.15 l 0.8 -0.25 l 0.83 0.25 v -0.6 l -0.83 -0.25 l -0.8 0.25 z" stroke-linecap="round"/>
</g>
		<g transform="matrix(0.3097 0 0 0.3097 -8.7535 3.8673)">
<path style="stroke: none; stroke-width: 1; stroke-dasharray: none; stroke-linecap: butt; stroke-dashoffset: 0; stroke-linejoin: miter; stroke-miterlimit: 4; is-custom-font: none; font-file-url: none; fill: rgb(200,77,51); fill-rule: evenodd; opacity: 1;" transform=" translate(-272.33, -169.255)" d="M 271 168.13 l 4.05 2.76 l 0.34 -0.37 q -2.17 -1.5 -4.42 -2.9 h -1.1 c -0.14 0.14 -0.46 0.4 -0.6 0.53 l 0.36 0.23 l 0.27 -0.24 z" stroke-linecap="round"/>
</g>
		<g transform="matrix(0.3097 0 0 0.3097 4.6112 18.2814)">
<path style="stroke: none; stroke-width: 1; stroke-dasharray: none; stroke-linecap: butt; stroke-dashoffset: 0; stroke-linejoin: miter; stroke-miterlimit: 4; is-custom-font: none; font-file-url: none; fill: rgb(164,30,37); fill-rule: evenodd; opacity: 1;" transform=" translate(-315.485, -215.795)" d="M 268.35 233.65 c 0.16 0.2 0.34 0.7 0.5 1 l 0.15 -0.17 c -0.05 -0.15 -0.4 -0.93 -0.55 -1.3 l -1.9 0.37 q -4.43 5.08 -8.75 10.24 c 0 0.15 0.17 0.34 0.22 0.5 l 8.75 -10.3 c 0.46 -0.14 1.08 -0.22 1.56 -0.33 z M 369 224.1 l 0.4 0.73 l 0.26 -0.1 l -0.65 -1.33 q -6.16 -3.28 -12.37 -6.36 l -1.25 0.33 l 0.23 0.7 c 0.33 -0.1 0.8 -0.17 1.12 -0.25 L 369 224.1 z m 2.9 -24.36 l 1 0.74 l 0.27 -0.37 l -1.18 -0.9 q -5.76 -0.84 -11.52 -1.43 l -0.68 0.7 l 0.23 0.23 l 0.4 -0.38 a 270.48 270.48 0 0 1 11.48 1.43 z m -13.56 -18.97 l 0.08 -0.6 l -1.17 -0.5 q -4.26 0.58 -8.5 1.4 l -0.15 0.74 c 0.07 0 5.8 -1.13 8.62 -1.5 z m -24.9 52.88 c -0.16 0.2 -0.34 0.7 -0.5 1 l -0.15 -0.17 c 0.05 -0.15 0.4 -0.93 0.55 -1.3 l 1.9 0.37 q 4.43 5.08 8.75 10.24 l -0.2 0.48 l -8.77 -10.3 c -0.46 -0.13 -1.08 -0.2 -1.56 -0.32 z m -30.9 6.9 l 0.28 11.37 v -11.8 c -0.42 -0.3 -1 -0.58 -1.4 -0.87 c -0.42 0.3 -1 0.58 -1.46 0.87 v 11.8 l 0.27 -11.37 c 0.34 -0.23 0.85 -0.46 1.2 -0.7 c 0.3 0.23 0.8 0.46 1.13 0.7 z" stroke-linecap="round"/>
</g>
		<g transform="matrix(0.3097 0 0 0.3097 0.1639 14.2207)">
<path style="stroke: none; stroke-width: 1; stroke-dasharray: none; stroke-linecap: butt; stroke-dashoffset: 0; stroke-linejoin: miter; stroke-miterlimit: 4; is-custom-font: none; font-file-url: none; fill: rgb(200,77,51); fill-rule: evenodd; opacity: 1;" transform=" translate(-301.1271, -202.685)" d="M 244.26 197.95 c 5.13 -22.92 36.92 -29.73 56.85 -29.73 S 352.83 175 358 198 c 6.4 28.53 -36.2 39.15 -56.85 39.15 s -63.28 -10.67 -56.9 -39.2 z m 2.08 -0.16 c 4.83 -22.14 35.58 -28.7 54.77 -28.7 s 49.94 6.57 54.77 28.7 c 6 27.4 -34.9 37.53 -54.77 37.53 s -60.75 -10.13 -54.77 -37.54 z" stroke-linecap="round"/>
</g>
		<g transform="matrix(0.3097 0 0 0.3097 0.2146 14.4111)">
<path style="stroke: none; stroke-width: 1; stroke-dasharray: none; stroke-linecap: butt; stroke-dashoffset: 0; stroke-linejoin: miter; stroke-miterlimit: 4; is-custom-font: none; font-file-url: none; fill: rgb(255,255,255); fill-rule: evenodd; opacity: 1;" transform=" translate(-301.2909, -203.3)" d="M 244.44 198.65 c 5.13 -22.92 35.6 -29.85 56.85 -29.85 s 51.72 6.93 56.85 29.85 c 6.4 28.53 -36.2 39.15 -56.85 39.15 s -63.24 -10.62 -56.85 -39.15 z m 2.08 -0.17 c 4.83 -22.14 35.58 -28.7 54.77 -28.7 s 49.94 6.57 54.77 28.7 c 6 27.4 -34.9 37.53 -54.77 37.53 s -60.74 -10.13 -54.77 -37.52 z" stroke-linecap="round"/>
</g>
		<g transform="matrix(0.3097 0 0 0.3097 11.316 15.1602)">
<path style="stroke: none; stroke-width: 1; stroke-dasharray: none; stroke-linecap: butt; stroke-dashoffset: 0; stroke-linejoin: miter; stroke-miterlimit: 4; is-custom-font: none; font-file-url: none; fill: rgb(79,39,74); fill-rule: nonzero; opacity: 0.45;" transform=" translate(-337.1285, -205.7174)" d="M 369.16 203.38 l -9.32 -1.38 l -1.23 -0.3 a 11.14 11.14 0 0 1 -5.85 -4 c -1.3 -2 -4.44 -5.47 -6.16 -7.62 c -2.38 -3 -7.8 -5.72 -8.6 -7 a 43.6 43.6 0 0 1 -2.46 -4.24 a 2.47 2.47 0 0 0 -2.62 -1.47 c -1.4 0.1 -1.53 0.57 -2.73 0.64 a 16.83 16.83 0 0 1 -2.88 -0.18 a 8.79 8.79 0 0 0 -1.75 -0.24 c -0.75 1.23 -1.9 2 -4.65 2 a 1.83 1.83 0 0 1 -0.48 -0.06 c 0.3 0.62 2.87 1 3.3 1 s 2.87 0.66 3.43 0.76 a 4.4 4.4 0 0 1 2.7 0.86 c 3 1.72 7.43 6.46 8.3 10.57 c 0.5 2.27 4.38 6 4.85 8.07 c -5.2 -0.4 -12.14 -3.83 -12.14 -3.83 l -0.87 -0.42 a 21 21 0 0 0 -7.84 -1.78 c -9 -0.8 -12.36 -2 -13.26 -2.3 c -1.85 -0.62 -1.6 -0.94 -3.1 -1 h -0.8 a 3.7 3.7 0 0 1 -0.77 1 a 24.7 24.7 0 0 0 -4.21 4.94 a 2.92 2.92 0 0 1 -1.78 1.15 c 1.7 -0.4 5.06 -1.3 5.06 -1.3 c 3.16 -0.42 8 1 8 1 a 38.88 38.88 0 0 1 4.71 1.5 s 12.77 3.9 15.9 6.18 c 2.06 1.5 12.67 5.47 15.48 6.44 A 103.64 103.64 0 0 1 357 217 c 1.76 1.5 12 6 14.83 6.93 a 28.7 28.7 0 0 0 3.87 -19.18 z m -4.7 -10.62 a 9.52 9.52 0 0 0 -1.94 0.23 l -2.52 1.5 c -0.32 0.52 0.83 1.2 0.83 1.2 s 3.2 0.2 3.2 1 c 2.36 1.25 7.4 1.4 10 1.53 q -0.5 -1.3 -1.14 -2.6 c -0.4 -0.83 -0.85 -1.64 -1.33 -2.44 c -0.2 0 -2.14 -0.55 -7.1 -0.44 z M 345.5 224 s -0.6 -0.78 -3.86 -0.8 c -2.06 0 0.9 4.88 0.9 4.88 c 1.86 1.25 8.57 3.16 10 3.35 s 6.08 1.58 6.08 1.58 a 35.57 35.57 0 0 1 4.94 1.08 l 1.16 -1.1 a 47.11 47.11 0 0 0 3.91 -4.33 c -5.66 -0.12 -13.7 -0.2 -19.8 -3.4 c -0.65 -1.8 -3.34 -1.28 -3.34 -1.28 z" stroke-linecap="round"/>
</g>
		<g transform="matrix(0.3097 0 0 0.3097 0.0266 -13.1247)">
<path style="stroke: none; stroke-width: 1; stroke-dasharray: none; stroke-linecap: butt; stroke-dashoffset: 0; stroke-linejoin: miter; stroke-miterlimit: 4; is-custom-font: none; font-file-url: none; fill: rgb(249,176,95); fill-rule: nonzero; opacity: 1;" transform=" translate(-300.68, -114.4057)" d="M 328.3 135.1 l -1.9 -1.8 c -0.14 -0.6 0.53 -1.4 0.7 -2.4 c -0.2 -0.07 -0.4 -0.16 -0.58 -0.24 c -0.46 -1.74 -0.83 -4.87 0 -6.54 a 4.17 4.17 0 0 0 0.61 -2.85 c -1.55 -5.32 -4.62 -10 -6.8 -15 a 9.69 9.69 0 0 1 -0.58 -3.76 c -1.68 -1.85 -3.62 -6.68 -4.56 -9.67 c -2 4.94 -3.25 10.62 -3.25 11.93 c 0 5.56 5.64 8.26 3.68 17.5 c -0.38 1.78 -1 4.25 -1.72 6.8 c 1.17 6.44 1.17 11.12 2.9 18.58 a 20.74 20.74 0 0 1 5.5 9.33 c 0.66 2.4 2.7 8.05 5.28 8.9 c 1.6 0.52 -5.45 1.82 -7.45 -0.7 s -5.24 -4.33 -6.82 -6.9 c -1.26 -2 -3.2 -6.4 -4.43 -8.46 l -1.5 7.92 c 2.05 8.46 0.83 10.32 -1 17.2 c -0.8 3 -6.77 -10.9 -6.78 -12 a 21.06 21.06 0 0 0 -0.9 -6.78 c -1.26 -2.44 -1.12 -5.9 -0.95 -8.55 c 0.3 -4.4 0.25 -12.72 0.44 -14.9 c -1.5 -3.7 -5.38 -10.42 -5.77 -14.2 c -0.6 -5.88 0.4 -11.83 -0.43 -17.7 c -1 2.94 -2.08 6.66 -4.36 8.9 a 142.31 142.31 0 0 0 -9.62 10.8 c -1.1 1.52 -0.13 2.26 -1.85 4.7 s -0.8 1.3 -1.14 3.6 a 1.64 1.64 0 0 1 -0.39 0.84 c -0.9 0.76 -1.87 1.4 -3.17 0.87 c -2.5 -1.26 -2.7 -3.13 -2.87 -5.54 c -0.33 -4.6 3.06 -4.8 5 -7.58 c 3.77 -5.45 5.68 -14.6 9.72 -18.7 c 0.25 -0.8 1.2 -3.75 3 -8.12 c 0.05 -5.43 1.4 -10.25 7 -12.48 c 2.3 -0.9 5.28 -1.14 5.4 -4.3 a 3.9 3.9 0 0 0 -0.3 -1.69 c -0.92 -0.74 -1.57 -0.76 -2 -1.3 c -0.9 -1.16 -1.65 -8.62 -1.55 -9.1 c 1.3 -6.33 4.34 -8.44 8.17 -8.25 c 4.53 0.23 8.13 2.4 7.93 8.5 c -0.16 4.9 -5.22 11.2 2.36 13.58 c 2.9 0.9 3.44 0.28 5.93 2.78 c 2.8 2.8 3.47 7.78 3.93 12.4 l 2.84 6.6 c 5.2 8.77 3.33 11.55 5.24 20.48 a 38.76 38.76 0 0 1 1.53 9.41 c 0.08 2.44 -1.83 7.8 -4.46 7.9 z" stroke-linecap="round"/>
</g>
		<g transform="matrix(0.3097 0 0 0.3097 0.053 -9.212)">
<linearGradient id="SVGID_9" gradientUnits="userSpaceOnUse" gradientTransform="matrix(1 0 0 1 0 0)" x1="275.79" y1="104.05" x2="331.01" y2="159.28">
<stop offset="0%" style="stop-color:rgb(44,58,146);stop-opacity: 1"/>
<stop offset="100%" style="stop-color:rgb(35,45,123);stop-opacity: 1"/>
</linearGradient>
<path style="stroke: none; stroke-width: 1; stroke-dasharray: none; stroke-linecap: butt; stroke-dashoffset: 0; stroke-linejoin: miter; stroke-miterlimit: 4; is-custom-font: none; font-file-url: none; fill: url(#SVGID_9); fill-rule: nonzero; opacity: 1;" transform=" translate(-300.7653, -127.039)" d="M 274 128.5 c 0.23 -2.34 -0.1 -2.14 1.4 -4.3 c 1.38 -2 0.72 -3 1.94 -4.76 a 139.16 139.16 0 0 1 9.22 -11 c 2.26 -2.3 5.33 -10 6 -12.73 c 0.14 -0.4 0.36 -0.6 0.45 -0.25 c 0.47 5.17 1.2 9.5 1 14.57 c -0.38 10.68 -0.1 9.56 4.35 19.53 c 0.37 -4 1.34 -9.83 3.68 -11.8 c -2.73 10.4 -2.9 25.2 -3.18 29.76 c -0.15 2.32 -0.78 6 0.33 8.1 a 26.29 26.29 0 0 1 0.44 5.28 l 0.07 18.23 l -1.6 8 a 15.28 15.28 0 0 1 -5.75 7.39 c -0.7 0.4 -2.34 1.26 -2.34 2 c 0 1.26 8.14 3.62 10 0.75 a 24.67 24.67 0 0 1 4.21 -4.94 c 2.56 -2.46 -0.28 -5 0.06 -8.3 c 0.6 -5.8 3.08 -10.82 3.9 -16.3 a 17.62 17.62 0 0 0 -1.09 -9.95 l 1.08 -10.45 a 67.47 67.47 0 0 1 3.47 7 c 2 4.23 2.06 4.65 5.58 8.12 a 23.22 23.22 0 0 1 3.3 4 c 1.65 2.63 2.8 5.23 2.65 8.37 c -1.22 2.2 -1.74 2.07 -3.3 3.4 a 1 1 0 0 0 1.05 1.29 c 5.3 0 4.64 -2.76 6.64 -6.35 c 1.3 -2.32 5 -5.84 0.93 -7.06 a 5.52 5.52 0 0 1 -3.22 -2.39 c -2.82 -4.72 -2.93 -4.6 -4.4 -8.94 a 14.43 14.43 0 0 0 -4.83 -6.48 a 27 27 0 0 1 -2.24 -8.22 l -1.68 -11.7 c 2.07 -8.2 3.13 -9.93 -0.4 -17.8 a 14.2 14.2 0 0 1 -1.26 -5.88 a 37.66 37.66 0 0 1 2.84 -11.55 a 4.66 4.66 0 0 1 2.14 -2.78 c 0.86 3.18 3.8 9.7 5.5 11.32 a 12.17 12.17 0 0 0 0.56 3.79 c 2.15 5.15 5.24 9.84 6.78 15.27 c 0.53 1.87 -0.17 2.77 -0.7 4.27 a 13.61 13.61 0 0 0 0.12 4.37 l 0.74 0.4 a 23.05 23.05 0 0 1 -0.72 2.4 a 1.82 1.82 0 0 0 1 1.16 c 1.18 -0.26 2.87 -4.53 2.8 -6.24 a 35 35 0 0 0 -1.59 -9.12 c -1.74 -8.87 -0.74 -11.3 -5.7 -19.88 l -2.82 -7 c -0.4 -3.47 -1.8 -11.62 -6.4 -13.1 c -0.77 -0.25 -1.54 -0.3 -2.7 -0.67 c -6 -1.94 -6 -6.54 -4.34 -11.56 c 1.45 -4.47 1.64 -9.74 -4.93 -10.3 c -4.07 -0.34 -5.3 2.86 -6.17 6.55 c 0 0.4 0.23 6.4 1.12 7.7 c 1.74 1.3 2.72 0.9 2.6 4.15 c -0.1 2.72 -1.82 4.33 -4.17 5.15 c -3.83 1.35 -5.78 2.13 -7.07 6.08 a 18.34 18.34 0 0 0 -0.76 5.67 V 91 a 92.7 92.7 0 0 0 -3.31 8.73 c -4.7 4.72 -7 15.46 -11.82 20 c -3.17 3 -4.12 3.2 -3 7.85 a 6.82 6.82 0 0 0 2 1.85 a 2.45 2.45 0 0 0 1.55 -0.94 z" stroke-linecap="round"/>
</g>
</g>
</g>
</svg>