<?xml version="1.0" encoding="UTF-8"?>
<!DOCTYPE svg PUBLIC "-//W3C//DTD SVG 1.1//EN" "http://www.w3.org/Graphics/SVG/1.1/DTD/svg11.dtd">
<svg xmlns="http://www.w3.org/2000/svg" version="1.1" width="32px" height="32px" style="shape-rendering:geometricPrecision; text-rendering:geometricPrecision; image-rendering:optimizeQuality; fill-rule:evenodd; clip-rule:evenodd" xmlns:xlink="http://www.w3.org/1999/xlink">
<g><path style="opacity:1" fill="#a7a8a7" d="M 20.5,2.5 C 22.0481,2.82124 22.7148,3.82124 22.5,5.5C 26.5,6.16667 26.5,6.83333 22.5,7.5C 21.8333,11.5 21.1667,11.5 20.5,7.5C 16.5,6.83333 16.5,6.16667 20.5,5.5C 20.5,4.5 20.5,3.5 20.5,2.5 Z"/></g>
<g><path style="opacity:0.861" fill="#a7a7a7" d="M 10.5,3.5 C 12.1667,3.5 13.8333,3.5 15.5,3.5C 15.5,4.5 15.5,5.5 15.5,6.5C 13.549,6.22672 12.049,6.89339 11,8.5C 10.501,12.8206 10.3343,17.1539 10.5,21.5C 13.8333,21.5 17.1667,21.5 20.5,21.5C 20.5,18.5 20.5,15.5 20.5,12.5C 22.1667,12.5 23.8333,12.5 25.5,12.5C 26.6662,17.497 26.6662,22.497 25.5,27.5C 23.9385,24.0366 23.1051,20.37 23,16.5C 22.6667,18.8333 22.3333,21.1667 22,23.5C 17.6667,24.8333 13.3333,24.8333 9,23.5C 8.66667,21.1667 8.33333,18.8333 8,16.5C 7.89487,20.37 7.06154,24.0366 5.5,27.5C 4.34014,23.5411 4.17347,19.5411 5,15.5C 7.38267,11.7248 9.216,7.72476 10.5,3.5 Z"/></g>
</svg>
